<svg width="182" height="31" viewBox="0 0 182 31" fill="none" xmlns="http://www.w3.org/2000/svg">
<path d="M0.0227273 24V0.727272H15.4318V4.78409H4.94318V10.3295H14.4091V14.3864H4.94318V24H0.0227273ZM64.3324 24.2841C63.0066 24.2841 61.8059 23.9432 60.7301 23.2614C59.6619 22.572 58.8134 21.5606 58.1847 20.2273C57.5634 18.8864 57.2528 17.2424 57.2528 15.2955C57.2528 13.2955 57.5748 11.6326 58.2188 10.3068C58.8627 8.97348 59.7188 7.97727 60.7869 7.31818C61.8627 6.65152 63.0407 6.31818 64.321 6.31818C65.2983 6.31818 66.1127 6.48485 66.7642 6.81818C67.4233 7.14394 67.9536 7.55303 68.3551 8.04545C68.7642 8.5303 69.0748 9.00758 69.2869 9.47727H69.4347V0.727272H74.2642V24H69.4915V21.2045H69.2869C69.0597 21.6894 68.7377 22.1705 68.321 22.6477C67.9119 23.1174 67.3778 23.5076 66.7188 23.8182C66.0672 24.1288 65.2718 24.2841 64.3324 24.2841ZM65.8665 20.4318C66.6468 20.4318 67.3059 20.2197 67.8438 19.7955C68.3892 19.3636 68.8059 18.7614 69.0938 17.9886C69.3892 17.2159 69.5369 16.3106 69.5369 15.2727C69.5369 14.2348 69.393 13.3333 69.1051 12.5682C68.8172 11.803 68.4006 11.2121 67.8551 10.7955C67.3097 10.3788 66.6468 10.1705 65.8665 10.1705C65.071 10.1705 64.4006 10.3864 63.8551 10.8182C63.3097 11.25 62.8968 11.8485 62.6165 12.6136C62.3362 13.3788 62.196 14.2652 62.196 15.2727C62.196 16.2879 62.3362 17.1856 62.6165 17.9659C62.9044 18.7386 63.3172 19.3447 63.8551 19.7841C64.4006 20.2159 65.071 20.4318 65.8665 20.4318ZM81.233 30.5455C80.6193 30.5455 80.0436 30.4962 79.5057 30.3977C78.9754 30.3068 78.536 30.1894 78.1875 30.0455L79.2784 26.4318C79.8466 26.6061 80.358 26.7008 80.8125 26.7159C81.2746 26.7311 81.6723 26.625 82.0057 26.3977C82.3466 26.1705 82.6231 25.7841 82.8352 25.2386L83.1193 24.5L76.858 6.54545H81.9489L85.5625 19.3636H85.7443L89.392 6.54545H94.517L87.733 25.8864C87.4072 26.8258 86.964 27.6439 86.4034 28.3409C85.8504 29.0455 85.1496 29.5871 84.3011 29.9659C83.4527 30.3523 82.4299 30.5455 81.233 30.5455ZM104.241 24V21.0795L115.855 4.78409H104.219V0.727272H122.037V3.64773L110.412 19.9432H122.06V24H104.241ZM150.21 13.9091V24H145.369V6.54545H149.983V9.625H150.188C150.574 8.60985 151.222 7.80682 152.131 7.21591C153.04 6.61742 154.142 6.31818 155.438 6.31818C156.65 6.31818 157.706 6.58333 158.608 7.11364C159.509 7.64394 160.21 8.40151 160.71 9.38636C161.21 10.3636 161.46 11.5303 161.46 12.8864V24H156.619V13.75C156.627 12.6818 156.354 11.8485 155.801 11.25C155.248 10.6439 154.487 10.3409 153.517 10.3409C152.866 10.3409 152.29 10.4811 151.79 10.7614C151.297 11.0417 150.911 11.4508 150.631 11.9886C150.358 12.5189 150.218 13.1591 150.21 13.9091ZM173.23 24.3409C171.435 24.3409 169.889 23.9773 168.594 23.25C167.306 22.5152 166.313 21.4773 165.616 20.1364C164.92 18.7879 164.571 17.1932 164.571 15.3523C164.571 13.5568 164.92 11.9811 165.616 10.625C166.313 9.26894 167.295 8.21212 168.56 7.45454C169.832 6.69697 171.325 6.31818 173.037 6.31818C174.188 6.31818 175.26 6.50379 176.253 6.875C177.253 7.23864 178.124 7.78788 178.866 8.52273C179.616 9.25758 180.2 10.1818 180.616 11.2955C181.033 12.4015 181.241 13.697 181.241 15.1818V16.5114H166.503V13.5114H176.685C176.685 12.8144 176.533 12.197 176.23 11.6591C175.927 11.1212 175.507 10.7008 174.969 10.3977C174.438 10.0871 173.821 9.93182 173.116 9.93182C172.382 9.93182 171.73 10.1023 171.162 10.4432C170.601 10.7765 170.162 11.2273 169.844 11.7955C169.526 12.3561 169.363 12.9811 169.355 13.6705V16.5227C169.355 17.3864 169.514 18.1326 169.832 18.7614C170.158 19.3902 170.616 19.875 171.207 20.2159C171.798 20.5568 172.499 20.7273 173.31 20.7273C173.848 20.7273 174.34 20.6515 174.787 20.5C175.234 20.3485 175.616 20.1212 175.935 19.8182C176.253 19.5152 176.495 19.1439 176.662 18.7045L181.139 19C180.912 20.0758 180.446 21.0152 179.741 21.8182C179.045 22.6136 178.143 23.2348 177.037 23.6818C175.938 24.1212 174.67 24.3409 173.23 24.3409Z" fill="white"/>
<path d="M26.5369 24.3409C24.7718 24.3409 23.2453 23.9659 21.9574 23.2159C20.6771 22.4583 19.6884 21.4053 18.9915 20.0568C18.2945 18.7008 17.946 17.1288 17.946 15.3409C17.946 13.5379 18.2945 11.9621 18.9915 10.6136C19.6884 9.25758 20.6771 8.20454 21.9574 7.45454C23.2453 6.69697 24.7718 6.31818 26.5369 6.31818C28.3021 6.31818 29.8248 6.69697 31.1051 7.45454C32.393 8.20454 33.3854 9.25758 34.0824 10.6136C34.7794 11.9621 35.1278 13.5379 35.1278 15.3409C35.1278 17.1288 34.7794 18.7008 34.0824 20.0568C33.3854 21.4053 32.393 22.4583 31.1051 23.2159C29.8248 23.9659 28.3021 24.3409 26.5369 24.3409ZM26.5597 20.5909C27.3627 20.5909 28.0331 20.3636 28.571 19.9091C29.1089 19.447 29.5142 18.8182 29.7869 18.0227C30.0672 17.2273 30.2074 16.322 30.2074 15.3068C30.2074 14.2917 30.0672 13.3864 29.7869 12.5909C29.5142 11.7955 29.1089 11.1667 28.571 10.7045C28.0331 10.2424 27.3627 10.0114 26.5597 10.0114C25.7491 10.0114 25.0672 10.2424 24.5142 10.7045C23.9688 11.1667 23.5559 11.7955 23.2756 12.5909C23.0028 13.3864 22.8665 14.2917 22.8665 15.3068C22.8665 16.322 23.0028 17.2273 23.2756 18.0227C23.5559 18.8182 23.9688 19.447 24.5142 19.9091C25.0672 20.3636 25.7491 20.5909 26.5597 20.5909ZM46.1619 24.3409C44.3968 24.3409 42.8703 23.9659 41.5824 23.2159C40.3021 22.4583 39.3134 21.4053 38.6165 20.0568C37.9195 18.7008 37.571 17.1288 37.571 15.3409C37.571 13.5379 37.9195 11.9621 38.6165 10.6136C39.3134 9.25758 40.3021 8.20454 41.5824 7.45454C42.8703 6.69697 44.3968 6.31818 46.1619 6.31818C47.9271 6.31818 49.4498 6.69697 50.7301 7.45454C52.018 8.20454 53.0104 9.25758 53.7074 10.6136C54.4044 11.9621 54.7528 13.5379 54.7528 15.3409C54.7528 17.1288 54.4044 18.7008 53.7074 20.0568C53.0104 21.4053 52.018 22.4583 50.7301 23.2159C49.4498 23.9659 47.9271 24.3409 46.1619 24.3409ZM46.1847 20.5909C46.9877 20.5909 47.6581 20.3636 48.196 19.9091C48.7339 19.447 49.1392 18.8182 49.4119 18.0227C49.6922 17.2273 49.8324 16.322 49.8324 15.3068C49.8324 14.2917 49.6922 13.3864 49.4119 12.5909C49.1392 11.7955 48.7339 11.1667 48.196 10.7045C47.6581 10.2424 46.9877 10.0114 46.1847 10.0114C45.3741 10.0114 44.6922 10.2424 44.1392 10.7045C43.5938 11.1667 43.1809 11.7955 42.9006 12.5909C42.6278 13.3864 42.4915 14.2917 42.4915 15.3068C42.4915 16.322 42.6278 17.2273 42.9006 18.0227C43.1809 18.8182 43.5938 19.447 44.1392 19.9091C44.6922 20.3636 45.3741 20.5909 46.1847 20.5909Z" fill="#FF0A0A"/>
<path d="M133.631 24.3409C131.866 24.3409 130.339 23.9659 129.051 23.2159C127.771 22.4583 126.782 21.4053 126.085 20.0568C125.388 18.7008 125.04 17.1288 125.04 15.3409C125.04 13.5379 125.388 11.9621 126.085 10.6136C126.782 9.25758 127.771 8.20454 129.051 7.45454C130.339 6.69697 131.866 6.31818 133.631 6.31818C135.396 6.31818 136.919 6.69697 138.199 7.45454C139.487 8.20454 140.479 9.25758 141.176 10.6136C141.873 11.9621 142.222 13.5379 142.222 15.3409C142.222 17.1288 141.873 18.7008 141.176 20.0568C140.479 21.4053 139.487 22.4583 138.199 23.2159C136.919 23.9659 135.396 24.3409 133.631 24.3409ZM133.653 20.5909C134.456 20.5909 135.127 20.3636 135.665 19.9091C136.203 19.447 136.608 18.8182 136.881 18.0227C137.161 17.2273 137.301 16.322 137.301 15.3068C137.301 14.2917 137.161 13.3864 136.881 12.5909C136.608 11.7955 136.203 11.1667 135.665 10.7045C135.127 10.2424 134.456 10.0114 133.653 10.0114C132.843 10.0114 132.161 10.2424 131.608 10.7045C131.063 11.1667 130.65 11.7955 130.369 12.5909C130.097 13.3864 129.96 14.2917 129.96 15.3068C129.96 16.322 130.097 17.2273 130.369 18.0227C130.65 18.8182 131.063 19.447 131.608 19.9091C132.161 20.3636 132.843 20.5909 133.653 20.5909Z" fill="#FF0909"/>
</svg>
